<svg xmlns="http://www.w3.org/2000/svg" viewBox="0 0 256 262" role="img" aria-label="Google G logo">
  <path fill="#4285F4" d="M255.68 133.45c0-10.84-.97-21.25-2.78-31.25H130.5v59.13h70.23c-3.03 16.34-12.17 30.17-25.95 39.42v32.7h41.95c24.57-22.62 38.95-56.01 38.95-100z"/>
  <path fill="#34A853" d="M130.5 261.1c35.1 0 64.56-11.63 86.08-31.65l-41.95-32.7c-11.64 7.8-26.5 12.4-44.13 12.4-33.9 0-62.62-22.87-72.9-53.58H14.3v33.66A130.58 130.58 0 0 0 130.5 261.1z"/>
  <path fill="#FBBC04" d="M57.6 155.57a78.5 78.5 0 0 1 0-49.99V71.92H14.3a130.58 130.58 0 0 0 0 117.31l43.3-33.66z"/>
  <path fill="#EA4335" d="M130.5 52.54c19.09 0 36.24 6.57 49.73 19.45l37.3-37.3C195 13.54 165.56.9 130.5.9A130.58 130.58 0 0 0 14.3 71.92l43.3 33.66c10.28-30.72 39-53.04 72.9-53.04z"/>
</svg>
